<svg xmlns="http://www.w3.org/2000/svg" xmlns:xlink="http://www.w3.org/1999/xlink" width="399" height="414" viewBox="0 0 399 414">
    <defs>
        <filter id="a" width="132%" height="122.4%" x="-16%" y="-11.2%" filterUnits="objectBoundingBox">
            <feOffset dy="2" in="SourceAlpha" result="shadowOffsetOuter1"/>
            <feGaussianBlur in="shadowOffsetOuter1" result="shadowBlurOuter1" stdDeviation="2"/>
            <feColorMatrix in="shadowBlurOuter1" result="shadowMatrixOuter1" values="0 0 0 0 0 0 0 0 0 0 0 0 0 0 0 0 0 0 0.5 0"/>
            <feMerge>
                <feMergeNode in="shadowMatrixOuter1"/>
                <feMergeNode in="SourceGraphic"/>
            </feMerge>
        </filter>
        <linearGradient id="b" x1=".14%" x2="85.773%" y1="15.847%" y2="82.597%">
            <stop offset="0%" stop-color="#EBAE1C"/>
            <stop offset="100%" stop-color="#FAD455"/>
        </linearGradient>
        <linearGradient id="c" x1=".14%" x2="85.773%" y1="15.847%" y2="82.597%">
            <stop offset="0%" stop-color="#EBAE1C"/>
            <stop offset="100%" stop-color="#FAD455"/>
        </linearGradient>
        <linearGradient id="d" x1=".14%" x2="85.773%" y1="15.847%" y2="82.597%">
            <stop offset="0%" stop-color="#EBAE1C"/>
            <stop offset="100%" stop-color="#FAD455"/>
        </linearGradient>
        <path id="f" d="M0 0l.56 95.315h81.233V18.888L65.603 0z"/>
        <filter id="e" width="117.1%" height="114.7%" x="-8.6%" y="-5.2%" filterUnits="objectBoundingBox">
            <feOffset dy="2" in="SourceAlpha" result="shadowOffsetOuter1"/>
            <feGaussianBlur in="shadowOffsetOuter1" result="shadowBlurOuter1" stdDeviation="2"/>
            <feColorMatrix in="shadowBlurOuter1" values="0 0 0 0 0 0 0 0 0 0 0 0 0 0 0 0 0 0 0.5 0"/>
        </filter>
        <filter id="g" width="124.8%" height="177.8%" x="-12.4%" y="-38.9%" filterUnits="objectBoundingBox">
            <feOffset dy="2" in="SourceAlpha" result="shadowOffsetOuter1"/>
            <feGaussianBlur in="shadowOffsetOuter1" result="shadowBlurOuter1" stdDeviation="2"/>
            <feColorMatrix in="shadowBlurOuter1" result="shadowMatrixOuter1" values="0 0 0 0 0 0 0 0 0 0 0 0 0 0 0 0 0 0 0.5 0"/>
            <feMerge>
                <feMergeNode in="shadowMatrixOuter1"/>
                <feMergeNode in="SourceGraphic"/>
            </feMerge>
        </filter>
        <radialGradient id="h" cy="0%" r="100%" fx="50%" fy="0%" gradientTransform="matrix(0 1 -.6193 0 .5 -.5)">
            <stop offset="0%" stop-color="#F2920B"/>
            <stop offset="100%" stop-color="#E6B995"/>
        </radialGradient>
        <linearGradient id="i" x1="50%" x2="50%" y1="0%" y2="100%">
            <stop offset="0%" stop-color="#64B3F4"/>
            <stop offset="100%" stop-color="#C2E59C"/>
        </linearGradient>
        <linearGradient id="j" x1="259.984%" x2="259.984%" y1="80.226%" y2="0%">
            <stop offset="0%" stop-color="#64B3F4"/>
            <stop offset="100%" stop-color="#C2E59C"/>
        </linearGradient>
        <linearGradient id="k" x1="50%" x2="50%" y1="0%" y2="100%">
            <stop offset="0%" stop-color="#64B3F4"/>
            <stop offset="100%" stop-color="#C2E59C"/>
        </linearGradient>
        <linearGradient id="l" x1="217.822%" x2="217.822%" y1="117.632%" y2="-42.886%">
            <stop offset="0%" stop-color="#64B3F4"/>
            <stop offset="100%" stop-color="#C2E59C"/>
        </linearGradient>
        <linearGradient id="m" x1="217.822%" x2="217.822%" y1="117.632%" y2="-42.886%">
            <stop offset="0%" stop-color="#64B3F4"/>
            <stop offset="100%" stop-color="#C2E59C"/>
        </linearGradient>
        <linearGradient id="n" x1="259.984%" x2="259.984%" y1="80.226%" y2="0%">
            <stop offset="0%" stop-color="#64B3F4"/>
            <stop offset="100%" stop-color="#C2E59C"/>
        </linearGradient>
    </defs>
    <g fill="none" fill-rule="evenodd">
        <path fill="#A0A4C1" d="M169.595 273.883L318.07 347.24a6 6 0 0 1 .725 10.336l-81.175 55.393a6 6 0 0 1-6.037.425L84.337 340.751a6 6 0 0 1-.793-10.292l79.946-56.107a6 6 0 0 1 6.105-.469z"/>
        <path fill="#F5F4F9" d="M169.22 268.531l148.477 73.357a6 6 0 0 1 .725 10.336l-81.176 55.394a6 6 0 0 1-6.036.424L83.962 335.4a6 6 0 0 1-.792-10.292l79.946-56.108a6 6 0 0 1 6.104-.468z"/>
        <path fill="#E2E5FA" d="M345.487 225.058l-154.79-70.309a6 6 0 0 0-8.43 4.675l-13.593 102.552a6 6 0 0 0 3.301 6.173l148.114 72.815a6 6 0 0 0 8.539-4.248l20.27-105.059a6 6 0 0 0-3.41-6.6z"/>
        <path fill="#171F45" d="M344.015 225.93l-154.791-70.31a6 6 0 0 0-8.43 4.675l-13.592 102.552a6 6 0 0 0 3.3 6.173l148.115 72.815a6 6 0 0 0 8.538-4.247l20.27-105.06a6 6 0 0 0-3.41-6.599z"/>
        <path fill="#E7E7E7" d="M334.542 236.78l-139.986-62.995a6 6 0 0 0-8.409 4.672l-10.734 79.761a6 6 0 0 0 3.276 6.173l134.363 66.772a6 6 0 0 0 8.559-4.22l16.357-83.538a6 6 0 0 0-3.426-6.624z"/>
        <path fill="#378FE1" d="M260.823 276.065l-25.248-11.468a3 3 0 0 0-4.223 2.408l-.883 8.143a3 3 0 0 0 1.698 3.035l24.653 11.678a3 3 0 0 0 4.238-2.188l1.478-8.354a3 3 0 0 0-1.713-3.254z"/>
        <path fill="#F2F3F3" stroke="#DBD9D9" stroke-linejoin="round" d="M304.244 239.09l-90.547-41.128a3 3 0 0 0-4.223 2.408l-4.154 38.31a3 3 0 0 0 1.698 3.035l87.838 41.61a3 3 0 0 0 4.239-2.188l6.863-38.794a3 3 0 0 0-1.714-3.254z"/>
        <path fill="#F2F3F3" stroke="#979797" stroke-linejoin="round" d="M298.914 240.989l-14.502-6.596a3 3 0 0 0-4.226 2.42l-.321 3.077a3 3 0 0 0 1.699 3.022l14.26 6.761a3 3 0 0 0 4.241-2.198l.562-3.243a3 3 0 0 0-1.713-3.243zM297.446 254.963l-14.501-6.596a3 3 0 0 0-4.226 2.42l-.322 3.077a3 3 0 0 0 1.699 3.022l14.26 6.761a3 3 0 0 0 4.241-2.198l.563-3.243a3 3 0 0 0-1.714-3.243z"/>
        <path fill="#30478D" d="M132.674 300.1l12.218 6.037a2 2 0 0 1 .24 3.446l-5.605 3.819a2 2 0 0 1-2.01.14l-12.135-5.986a2 2 0 0 1-.263-3.431l5.522-3.87a2 2 0 0 1 2.033-.154zM153.314 310.182l12.218 6.037a2 2 0 0 1 .24 3.446l-5.604 3.818a2 2 0 0 1-2.011.141l-12.134-5.986a2 2 0 0 1-.263-3.431l5.52-3.87a2 2 0 0 1 2.034-.155zM220.027 343.166l12.218 6.036a2 2 0 0 1 .24 3.446l-5.605 3.819a2 2 0 0 1-2.01.14l-12.135-5.986a2 2 0 0 1-.263-3.431l5.521-3.87a2 2 0 0 1 2.034-.154zM239.904 353.3l12.218 6.037a2 2 0 0 1 .24 3.446l-5.605 3.819a2 2 0 0 1-2.01.14l-12.135-5.986a2 2 0 0 1-.263-3.431l5.521-3.87a2 2 0 0 1 2.034-.154zM259.781 363.436L272 369.472a2 2 0 0 1 .24 3.446l-5.605 3.819a2 2 0 0 1-2.01.14l-12.135-5.986a2 2 0 0 1-.263-3.431l5.521-3.87a2 2 0 0 1 2.034-.154zM173.955 320.264l12.217 6.036a2 2 0 0 1 .24 3.446l-5.604 3.82a2 2 0 0 1-2.011.14l-12.134-5.986a2 2 0 0 1-.263-3.432l5.52-3.869a2 2 0 0 1 2.035-.155z"/>
        <path fill="#30478D" d="M187.46 327.003l12.218 6.036a2 2 0 0 1 .24 3.446l-5.604 3.82a2 2 0 0 1-2.011.14l-12.134-5.986a2 2 0 0 1-.263-3.432l5.52-3.869a2 2 0 0 1 2.034-.155z"/>
        <path fill="#30478D" d="M199.387 333.084l12.217 6.036a2 2 0 0 1 .24 3.446l-5.604 3.82a2 2 0 0 1-2.011.14l-12.134-5.986a2 2 0 0 1-.263-3.432l5.521-3.869a2 2 0 0 1 2.034-.155zM163.437 279.51l12.218 6.036a2 2 0 0 1 .24 3.446l-5.604 3.819a2 2 0 0 1-2.011.14l-12.134-5.986a2 2 0 0 1-.263-3.431l5.52-3.87a2 2 0 0 1 2.034-.154zM184.894 290.302l12.218 6.037a2 2 0 0 1 .24 3.446l-5.605 3.819a2 2 0 0 1-2.01.14l-12.135-5.986a2 2 0 0 1-.263-3.431l5.521-3.87a2 2 0 0 1 2.034-.155zM250.79 322.574l12.218 6.037a2 2 0 0 1 .24 3.446l-5.605 3.819a2 2 0 0 1-2.01.14l-12.135-5.986a2 2 0 0 1-.263-3.431l5.521-3.87a2 2 0 0 1 2.034-.155zM270.667 332.71l12.218 6.036a2 2 0 0 1 .24 3.446l-5.605 3.819a2 2 0 0 1-2.01.14l-12.135-5.986a2 2 0 0 1-.263-3.431l5.521-3.87a2 2 0 0 1 2.034-.154zM290.544 342.845l12.218 6.036a2 2 0 0 1 .24 3.446l-5.604 3.819a2 2 0 0 1-2.011.14l-12.135-5.986a2 2 0 0 1-.262-3.431l5.52-3.87a2 2 0 0 1 2.034-.154zM207.114 301.042l12.217 6.036a2 2 0 0 1 .24 3.446l-5.604 3.82a2 2 0 0 1-2.011.14l-12.134-5.986a2 2 0 0 1-.263-3.432l5.521-3.869a2 2 0 0 1 2.034-.155zM229.333 311.782l12.218 6.036a2 2 0 0 1 .24 3.446l-5.604 3.819a2 2 0 0 1-2.011.14l-12.135-5.986a2 2 0 0 1-.262-3.431l5.52-3.87a2 2 0 0 1 2.034-.154zM148.819 289.752l12.218 6.036a2 2 0 0 1 .24 3.446l-5.605 3.819a2 2 0 0 1-2.011.14l-12.134-5.985a2 2 0 0 1-.263-3.432l5.521-3.869a2 2 0 0 1 2.034-.155z"/>
        <path fill="#30478D" d="M160.745 295.833l12.218 6.036a2 2 0 0 1 .24 3.446l-5.605 3.819a2 2 0 0 1-2.01.14l-12.135-5.985a2 2 0 0 1-.263-3.432l5.521-3.869a2 2 0 0 1 2.034-.155zM202.025 315.996l12.218 6.036a2 2 0 0 1 .24 3.446l-5.604 3.82a2 2 0 0 1-2.011.14l-12.134-5.986a2 2 0 0 1-.263-3.432l5.52-3.869a2 2 0 0 1 2.034-.155zM221.903 326.131l12.217 6.036a2 2 0 0 1 .24 3.446l-5.604 3.82a2 2 0 0 1-2.011.14l-12.134-5.986a2 2 0 0 1-.263-3.432l5.52-3.869a2 2 0 0 1 2.035-.155zM242.543 336.213l12.218 6.036a2 2 0 0 1 .24 3.446l-5.605 3.819a2 2 0 0 1-2.011.14l-12.134-5.985a2 2 0 0 1-.263-3.432l5.521-3.869a2 2 0 0 1 2.034-.155zM181.385 305.914l12.218 6.037a2 2 0 0 1 .24 3.446l-5.604 3.819a2 2 0 0 1-2.011.14l-12.135-5.986a2 2 0 0 1-.262-3.431l5.52-3.87a2 2 0 0 1 2.034-.155zM263.25 346.801l12.219 6.037a2 2 0 0 1 .24 3.446l-5.605 3.819a2 2 0 0 1-2.011.14l-12.134-5.986a2 2 0 0 1-.263-3.431l5.521-3.87a2 2 0 0 1 2.034-.155z"/>
        <path fill="#30478D" d="M275.177 352.882l12.218 6.037a2 2 0 0 1 .24 3.446l-5.605 3.819a2 2 0 0 1-2.01.14l-12.135-5.986a2 2 0 0 1-.263-3.431l5.521-3.87a2 2 0 0 1 2.034-.155z"/>
        <path fill="#CFD3EC" d="M160.34 339.26l27.294 12.5a3 3 0 0 1 .283 5.307l-23.054 13.691a3 3 0 0 1-2.85.116l-25.454-12.453a3 3 0 0 1-.312-5.213l21.214-13.739a3 3 0 0 1 2.88-.21z"/>
        <path stroke="#979797" d="M223.612 212.79l6.495 7.984-2.807 6.627-5.632 1.64-5.913-6.552.027-5.668zM221.876 216.14l4.853 5.067"/>
        <path stroke="#979797" d="M227.3 227.401l5.67 6.45-3.22 7.602-7.065.915-4.686-5.915 3.22-7.602M233.022 234.01l7.138-.858M240.5 233.017l4.415 5.916-2.5 5.9-7.615 1.645-4.698-4.875M242.81 245.31l4.915 5.962M247.928 250.95l7.133-.736 4.346 5.621 7.5-.48 3.942 5.348M234.957 235.948l-3.268 4.733M238.538 235.698l3.895 4.232M235.521 244.017l5.31-1.272"/>
        <g filter="url(#a)" transform="rotate(-4 1202.515 -4349.786)">
            <path stroke="#D4CFCF" stroke-linecap="square" stroke-width="2" d="M28.271 27.412l10.322-.449M15.258 62.015l8.975 7.19"/>
            <path stroke="#D4CFCF" stroke-width="2" d="M52.055 33.254l7.18 5.393"/>
            <path stroke="#D4CFCF" stroke-linecap="square" stroke-width="2" d="M14.809 38.198L10.32 51.679M11.219 36.4L6.73 49.881M60.582 48.983l-4.488 13.481M65.07 48.983l-4.488 13.481"/>
            <ellipse cx="17.501" cy="28.311" fill="url(#b)" rx="10.321" ry="10.336"/>
            <ellipse cx="45.324" cy="26.514" fill="url(#b)" rx="10.321" ry="10.336"/>
            <ellipse cx="8.975" cy="55.723" fill="url(#c)" rx="8.975" ry="8.988"/>
            <ellipse cx="30.066" cy="72.351" fill="url(#b)" rx="10.321" ry="10.336"/>
            <ellipse cx="55.645" cy="69.205" fill="url(#c)" rx="8.975" ry="8.988"/>
            <ellipse cx="61.928" cy="8.988" fill="#4DA9E2" rx="8.975" ry="8.988"/>
            <ellipse cx="27.823" cy="97.965" fill="#4DA9E2" rx="8.975" ry="8.988"/>
            <ellipse cx="65.069" cy="46.286" fill="url(#d)" rx="9.424" ry="9.437"/>
            <path stroke="#D4CFCF" stroke-width="2" d="M58.338 12.583l-5.834 6.74M28.72 78.193v10.785M46.67 72.35l-6.282.45"/>
        </g>
        <g>
            <g transform="rotate(-17 141.494 -461.598)">
                <use fill="#000" filter="url(#e)" xlink:href="#f"/>
                <use fill="#F7F5F3" xlink:href="#f"/>
            </g>
            <path fill="#E4E4E4" d="M203.888 2.015l5.52 18.058 15.473-4.73"/>
            <path fill="#ABABAB" d="M158.22 43.246l48.134-14.716 1.84 6.019-48.134 14.716zM161.375 53.565l35.241-10.775 1.84 6.019-35.241 10.775zM164.53 63.883l38.679-11.826 1.84 6.02-38.68 11.825zM167.684 74.203l35.242-10.775 1.84 6.019-35.242 10.775zM170.839 84.521l48.135-14.716 1.84 6.019-48.135 14.716z"/>
        </g>
        <g stroke-linecap="round" stroke-width="4" filter="url(#g)" transform="rotate(-170 67.104 90.303)">
            <path stroke="url(#h)" d="M.643.74c36.426 0 21.576 35.068 56.625 35.068" transform="rotate(180 28.956 18.274)"/>
            <path stroke="url(#h)" d="M56.232.775c36.426 0 21.576 35.068 56.626 35.068" transform="matrix(1 0 0 -1 0 36.618)"/>
            <path stroke="url(#i)" d="M52.28 3.207l-.673 30.833"/>
            <path stroke="url(#j)" d="M18.164 7.886v23.379"/>
            <path stroke="url(#k)" d="M41.272 8.582l-.674 20.97M75.28 7.513l-.674 20.97"/>
            <path stroke="url(#l)" d="M94.878 8.867l-.674 18.293"/>
            <path stroke="url(#m)" d="M106.998 5.004v28.383"/>
            <path stroke="url(#n)" d="M8.225 4.472l.674 30.833"/>
            <path stroke="url(#i)" d="M64.097 2.012l-.674 30.833"/>
            <path stroke="url(#h)" d="M2.387.304c36.426 0 21.576 35.069 56.626 35.069" transform="matrix(1 0 0 -1 0 35.677)"/>
            <path stroke="url(#h)" d="M56.232.775c36.426 0 21.576 35.068 56.626 35.068" transform="rotate(180 84.545 18.309)"/>
        </g>
        <g fill="#F7C1AA" fill-rule="nonzero">
            <path d="M131.84 258.527a2 2 0 0 1 .32 3.988l-.997.08a2 2 0 0 1-.32-3.988zm-10.999.473l.15-.007 1-.01a2 2 0 1 1 .04 4l-1 .01a2 2 0 0 1-.04-4zm20.832-1.554a2 2 0 1 1 .548 3.962l-.991.137a2 2 0 0 1-.547-3.962zm9.773-1.595a2 2 0 1 1 .735 3.932l-.983.184a2 2 0 1 1-.735-3.932zm-42.435 4.585a2 2 0 0 1 2.147-1.841l.997.077a2 2 0 1 1-.306 3.988l-.997-.077a2 2 0 0 1-1.841-2.147zm-9.866-1.603a2 2 0 0 1 2.333-1.599l.983.184a2 2 0 1 1-.734 3.932l-.983-.184a2 2 0 0 1-1.599-2.333zm-9.602-2.868a2 2 0 0 1 2.527-1.27l.95.314a2 2 0 0 1-1.258 3.798l-.949-.315a2 2 0 0 1-1.27-2.527zm-9.046-4.35a2 2 0 0 1 2.7-.84l.886.465a2 2 0 1 1-1.86 3.54l-.885-.464a2 2 0 0 1-.841-2.7zm-8.04-5.87a2 2 0 0 1 2.809-.329l.784.62a2 2 0 1 1-2.48 3.138l-.785-.62a2 2 0 0 1-.328-2.809zm-6.816-7.36a2 2 0 0 1 2.82.218l.65.76a2 2 0 1 1-3.037 2.602l-.65-.76a2 2 0 0 1 .217-2.82zm-5.353-8.488a2 2 0 0 1 2.735.72l.504.864a2 2 0 1 1-3.454 2.015l-.504-.863a2 2 0 0 1 .72-2.736zm-3.935-9.238a2 2 0 0 1 2.593 1.131l.365.931a2 2 0 1 1-3.723 1.462l-.366-.931a2 2 0 0 1 1.131-2.593zm-5.305-22.965L68.989 217.2a2 2 0 0 1-2.944 2.708l-12.833-13.951a2.023 2.023 0 0 1-.415.098l-5.26 18.21a2 2 0 1 1-3.843-1.11l7.354-25.461zm3.105 13.19a2 2 0 0 1 2.405 1.488l.23.973a2 2 0 0 1-3.894.917l-.23-.973a2 2 0 0 1 1.49-2.406zM230.048 160.241a2 2 0 0 1 3.574 1.797l-.449.893a2 2 0 0 1-3.574-1.796zm3.54-9.01a2 2 0 1 1 3.814 1.204l-.301.954a2 2 0 1 1-3.814-1.205zm1.672-9.403a2 2 0 1 1 3.987.322l-.08.996a2 2 0 0 1-3.988-.321zm.69-11.728a2 2 0 0 1 2.371 1.541l.208.979a2 2 0 1 1-3.913.83l-.208-.979a2 2 0 0 1 1.542-2.371zm-16.856-23.02l24.601 9.858a2 2 0 1 1-1.488 3.713l-14.219-5.698a2 2 0 0 1-3.172 2.434l.06.068 2.515 15.112a2 2 0 0 1-1.499 2.271l-.146.03a2 2 0 0 1-2.301-1.644l-4.351-26.143zm11.668 14.509a2 2 0 0 1 2.811.305l.627.78a2 2 0 1 1-3.117 2.506l-.627-.78a2 2 0 0 1 .306-2.811zm-6.555-8.15l.089.54a2.018 2.018 0 0 1 .42-.338l-.509-.202zM354.449 280.036a2 2 0 0 1 2.906 2.748l-.687.727a2 2 0 1 1-2.906-2.749zm6.527-7.414a2 2 0 0 1 3.067 2.568l-.642.767a2 2 0 1 1-3.067-2.568zm6.02-7.826a2 2 0 1 1 3.24 2.347l-.586.81a2 2 0 1 1-3.24-2.347zm5.38-8.23a2 2 0 0 1 3.42 2.076l-.519.855a2 2 0 1 1-3.42-2.075zm4.629-8.677a2 2 0 0 1 3.6 1.744l-.437.9a2 2 0 1 1-3.6-1.744zm3.693-9.04a2 2 0 0 1 3.765 1.35l-.337.941a2 2 0 0 1-3.766-1.35zm2.637-9.413a2 2 0 1 1 3.9.891l-.223.975a2 2 0 1 1-3.9-.891zm1.443-9.67a2 2 0 0 1 3.981.386l-.096.995a2 2 0 0 1-3.981-.386zm2.11-11.749a2 2 0 0 1 2.065 1.933l.033 1a2 2 0 1 1-3.998.132l-.033-1a2 2 0 0 1 1.933-2.065zm-1.352-9.926a2 2 0 0 1 2.294 1.655l.16.987a2 2 0 0 1-3.95.638l-.159-.987a2 2 0 0 1 1.655-2.293zm-7.342-23.195l19.342 18.119a2 2 0 1 1-2.735 2.919l-13.259-12.42a2 2 0 0 1-1.144.36l-3.73 17.781a2 2 0 0 1-3.914-.82l5.44-25.939zm4.309 13.654a2 2 0 0 1 2.509 1.305l.3.954a2 2 0 0 1-3.814 1.204l-.301-.954a2 2 0 0 1 1.306-2.51z"/>
        </g>
    </g>
</svg>
